<?xml version="1.0" encoding="iso-8859-1"?>
<!-- Generator: Adobe Illustrator 19.0.0, SVG Export Plug-In . SVG Version: 6.00 Build 0)  -->
<svg version="1.1" id="Layer_1" xmlns="http://www.w3.org/2000/svg" xmlns:xlink="http://www.w3.org/1999/xlink" x="0px" y="0px"
	 viewBox="0 0 512 512" style="enable-background:new 0 0 512 512;" xml:space="preserve">
<g>
	<g>
		<path d="M403.444,82.363c5.677-7.371,4.305-17.948-3.065-23.624c-7.372-5.678-17.948-4.305-23.624,3.065l-93.676,121.613
			c-15.261,0-18.368,0-53.269,0L171.74,164.32l-36.694-59.336c-4.893-7.913-15.276-10.359-23.187-5.467
			c-7.912,4.893-10.359,15.275-5.467,23.186l39.925,64.56c2.087,3.374,5.296,5.903,9.064,7.142l59.499,19.567v114.204
			l-23.495,56.712c-1.666,4.019-1.989,8.468-0.924,12.686l25.042,99.156c2.733,10.824,13.722,17.383,24.548,14.648
			c10.824-2.734,17.383-13.724,14.648-24.548l-23.402-92.66l20.436-49.327h12.8l5.349,51.385
			c0.979,9.403,8.346,16.873,17.735,17.981l88.739,10.476c11.115,1.309,21.139-6.642,22.445-17.705
			c1.311-11.086-6.617-21.134-17.704-22.442l-72.679-8.58l-4.315-41.458V211.242C305.06,210.132,297.401,220.031,403.444,82.363z"/>
	</g>
</g>
<g>
	<g>
		<circle cx="259.673" cy="137.377" r="34.911"/>
	</g>
</g>
<g>
	<g>
		<path d="M218.256,40.717c-0.433-0.894-1.387-1.135-2.586-1.122l1.762,3.633C218.248,42.564,218.73,41.694,218.256,40.717z"/>
	</g>
</g>
<g>
	<g>
		<path d="M210.153,32.088c-1.103,0.836-1.315,1.71-1,2.36c0.382,0.786,1.324,0.932,2.564,0.866L210.153,32.088z"/>
	</g>
</g>
<g>
	<g>
		<path d="M252.861,36.55c-4.57-9.586-9.14-19.173-13.71-28.758c-0.719-1.507-2.257-2.454-3.926-2.42
			c-23.371,0.484-33.329,28.623-56.166,30.21c-1.825,0.127-2.945,2.053-2.16,3.7c4.57,9.588,9.14,19.174,13.71,28.759
			c0.719,1.507,2.257,2.454,3.926,2.42c23.371-0.484,33.329-28.623,56.166-30.211C252.529,40.123,253.645,38.193,252.861,36.55z
			 M219.531,46.867l0.381,0.786c0.184,0.38-0.161,0.982-0.675,1.232c-0.597,0.29-1.203,0.148-1.386-0.232l-0.329-0.679
			c-3.305,1.469-6.779,1.077-7.621-0.657c-0.446-0.922-0.291-2.672,0.739-3.172c1.139-0.552,2.838,0.6,5.015-0.02l-2.131-4.393
			c-2.955,0.261-6.449,0.515-8.132-2.955c-1.67-3.446,0.076-6.336,2.753-8.136l-0.369-0.758c-0.184-0.38,0.079-0.943,0.676-1.233
			c0.515-0.25,1.202-0.147,1.385,0.233l0.329,0.679c1.707-0.762,5.09-1.867,5.998,0.006c0.354,0.732,0.589,2.46-0.604,3.039
			c-0.895,0.434-1.831-0.183-3.659,0.535l1.921,3.958c2.913-0.274,6.406-0.393,8.183,3.266
			C223.635,41.727,222.452,44.812,219.531,46.867z"/>
	</g>
</g>
<g>
	<g>
		<path d="M375.26,254.135c-1.214,0.664-1.554,1.497-1.337,2.187c0.262,0.834,1.172,1.117,2.408,1.235L375.26,254.135z"/>
	</g>
</g>
<g>
	<g>
		<path d="M416.877,264.936c-3.105-10.156-6.211-20.311-9.318-30.466c-0.489-1.597-1.869-2.761-3.525-2.973
			c-23.186-2.969-37.187,23.394-60.007,21.595c-1.824-0.143-3.216,1.596-2.683,3.341c3.106,10.156,6.213,20.311,9.319,30.466
			c0.489,1.597,1.869,2.761,3.525,2.973c23.186,2.969,37.186-23.394,60.007-21.595C416.014,268.42,417.412,266.684,416.877,264.936z
			 M382.354,270.135l0.262,0.834c0.126,0.403-0.303,0.947-0.85,1.118c-0.633,0.199-1.211-0.03-1.337-0.433l-0.224-0.72
			c-3.487,0.965-6.864,0.067-7.44-1.775c-0.307-0.978,0.106-2.685,1.198-3.027c1.208-0.379,2.716,1.012,4.962,0.72l-1.458-4.659
			c-2.962-0.179-6.455-0.442-7.607-4.124c-1.144-3.653,1.01-6.253,3.923-7.639l-0.252-0.805c-0.125-0.403,0.218-0.922,0.851-1.121
			c0.545-0.171,1.211,0.032,1.336,0.435l0.224,0.719c1.801-0.501,5.311-1.095,5.933,0.89c0.242,0.777,0.22,2.521-1.045,2.916
			c-0.948,0.298-1.784-0.451-3.697-0.009l1.315,4.198c2.922,0.159,6.395,0.555,7.611,4.438
			C387.173,265.657,385.548,268.533,382.354,270.135z"/>
	</g>
</g>
<g>
	<g>
		<path d="M382.002,263.865c-0.298-0.947-1.206-1.327-2.394-1.491l1.208,3.853C381.721,265.69,382.326,264.9,382.002,263.865z"/>
	</g>
</g>
<g>
	<g>
		<path d="M445.202,158.596c-0.682-0.722-1.664-0.666-2.805-0.295l2.77,2.939C445.747,160.36,445.946,159.385,445.202,158.596z"/>
	</g>
</g>
<g>
	<g>
		<path d="M434.885,152.793c-0.802,1.126-0.743,2.023-0.247,2.55c0.6,0.636,1.543,0.493,2.705,0.059L434.885,152.793z"/>
	</g>
</g>
<g>
	<g>
		<path d="M476.958,144.369c-7.232-7.776-14.464-15.552-21.695-23.329c-1.137-1.223-2.889-1.666-4.47-1.133
			c-22.153,7.463-23.223,37.293-44.535,45.649c-1.702,0.667-2.196,2.842-0.953,4.178c7.232,7.776,14.464,15.554,21.696,23.33
			c1.137,1.223,2.889,1.666,4.47,1.133c22.154-7.464,23.223-37.294,44.536-45.65C477.704,147.882,478.202,145.708,476.958,144.369z
			 M448.859,164.717c0.29,0.307,0.14,0.985-0.275,1.377c-0.483,0.455-1.103,0.501-1.393,0.193l-0.516-0.547
			c-2.714,2.392-6.146,3.059-7.469,1.655c-0.703-0.746-1.078-2.462-0.244-3.247c0.921-0.868,2.885-0.278,4.777-1.521l-3.349-3.553
			c-2.741,1.135-5.997,2.423-8.644-0.383c-2.626-2.785-1.825-6.066,0.19-8.586l-0.58-0.613c-0.29-0.308-0.207-0.923,0.277-1.378
			c0.415-0.392,1.103-0.501,1.393-0.193l0.516,0.547c1.399-1.238,4.298-3.306,5.724-1.792c0.557,0.592,1.3,2.171,0.334,3.081
			c-0.723,0.682-1.8,0.373-3.33,1.607l3.017,3.202c2.698-1.136,5.995-2.296,8.785,0.664c2.563,2.72,2.359,6.018,0.187,8.853
			L448.859,164.717z"/>
	</g>
</g>
<g>
	<g>
		<path d="M64.623,196.003c-0.802,1.126-0.743,2.023-0.247,2.55c0.6,0.636,1.543,0.493,2.705,0.059L64.623,196.003z"/>
	</g>
</g>
<g>
	<g>
		<path d="M74.94,201.806c-0.682-0.723-1.664-0.667-2.805-0.295l2.77,2.939C75.485,203.571,75.684,202.595,74.94,201.806z"/>
	</g>
</g>
<g>
	<g>
		<path d="M106.697,187.579c-7.233-7.776-14.465-15.554-21.696-23.33c-1.137-1.223-2.889-1.666-4.47-1.133
			c-22.153,7.463-23.223,37.293-44.535,45.649c-1.703,0.667-2.196,2.841-0.953,4.177c7.232,7.777,14.464,15.554,21.696,23.33
			c1.137,1.223,2.889,1.666,4.47,1.133c22.153-7.463,23.223-37.294,44.535-45.649C107.443,191.09,107.942,188.918,106.697,187.579z
			 M78.597,207.926c0.29,0.307,0.14,0.985-0.275,1.377c-0.483,0.455-1.103,0.501-1.393,0.193l-0.516-0.548
			c-2.714,2.392-6.146,3.059-7.469,1.655c-0.703-0.746-1.078-2.462-0.244-3.247c0.921-0.868,2.885-0.278,4.777-1.521l-3.349-3.553
			c-2.741,1.135-5.997,2.423-8.644-0.383c-2.627-2.785-1.825-6.066,0.19-8.586l-0.58-0.613c-0.29-0.308-0.207-0.923,0.277-1.378
			c0.415-0.392,1.103-0.501,1.393-0.193l0.516,0.547c1.399-1.238,4.298-3.306,5.724-1.792c0.558,0.592,1.301,2.171,0.334,3.081
			c-0.723,0.682-1.801,0.373-3.329,1.607l3.017,3.202c2.698-1.136,5.995-2.296,8.785,0.664c2.563,2.72,2.359,6.018,0.187,8.854
			L78.597,207.926z"/>
	</g>
</g>
<g>
	<g>
		<path d="M78.598,34.958c-0.946,0.304-1.319,1.215-1.475,2.404l3.845-1.235C80.424,35.227,79.631,34.627,78.598,34.958z"/>
	</g>
</g>
<g>
	<g>
		<path d="M68.916,41.773c0.674,1.209,1.509,1.542,2.197,1.32c0.832-0.268,1.108-1.179,1.217-2.418L68.916,41.773z"/>
	</g>
</g>
<g>
	<g>
		<path d="M82.808,2.779c0.13-1.82-1.616-3.205-3.361-2.659C69.315,3.3,59.182,6.479,49.05,9.658
			c-1.593,0.5-2.748,1.889-2.947,3.547c-2.801,23.208,23.662,37.016,22.027,59.85c-0.13,1.82,1.616,3.205,3.361,2.659
			c10.133-3.18,20.266-6.359,30.397-9.538c1.593-0.5,2.748-1.889,2.947-3.547C107.636,39.421,81.174,25.612,82.808,2.779z
			 M86.398,36.475l-0.717,0.23c0.991,3.479,0.116,6.862-1.721,7.452c-0.975,0.313-2.686-0.087-3.037-1.176
			c-0.386-1.206,0.993-2.724,0.684-4.966l-4.648,1.493c-0.157,2.963-0.395,6.457-4.068,7.636c-3.646,1.171-6.263-0.965-7.669-3.868
			l-0.803,0.259c-0.402,0.129-0.923-0.21-1.125-0.842c-0.175-0.545,0.023-1.211,0.425-1.339l0.716-0.23
			c-0.514-1.797-1.133-5.303,0.847-5.938c0.774-0.249,2.518-0.239,2.923,1.024c0.304,0.946-0.439,1.786,0.017,3.697l4.189-1.345
			c0.137-2.923,0.509-6.399,4.382-7.643c3.558-1.142,6.447,0.462,8.071,3.644l0.833-0.268c0.402-0.129,0.95,0.297,1.125,0.841
			C87.024,35.767,86.8,36.346,86.398,36.475z"/>
	</g>
</g>
<g>
	<g>
		<path d="M317.682,34.958c-0.946,0.304-1.319,1.215-1.475,2.404l3.845-1.235C319.508,35.227,318.715,34.627,317.682,34.958z"/>
	</g>
</g>
<g>
	<g>
		<path d="M308,41.773c0.674,1.209,1.509,1.542,2.197,1.32c0.832-0.268,1.108-1.179,1.217-2.418L308,41.773z"/>
	</g>
</g>
<g>
	<g>
		<path d="M321.892,2.779c0.13-1.82-1.616-3.205-3.361-2.659c-10.133,3.18-20.266,6.359-30.397,9.538
			c-1.593,0.5-2.748,1.889-2.947,3.547c-2.802,23.208,23.662,37.016,22.027,59.85c-0.13,1.82,1.616,3.205,3.361,2.659
			c10.133-3.18,20.266-6.359,30.397-9.538c1.593-0.5,2.748-1.889,2.947-3.547C346.72,39.421,320.257,25.612,321.892,2.779z
			 M325.479,36.475l-0.717,0.23c0.992,3.479,0.115,6.862-1.721,7.452c-0.975,0.313-2.686-0.087-3.037-1.176
			c-0.388-1.206,0.993-2.724,0.684-4.966l-4.648,1.493c-0.158,2.963-0.395,6.457-4.069,7.636c-3.643,1.171-6.259-0.965-7.665-3.868
			l-0.804,0.259c-0.402,0.129-0.923-0.21-1.125-0.842c-0.175-0.545,0.022-1.211,0.424-1.339l0.717-0.23
			c-0.514-1.797-1.133-5.303,0.847-5.938c0.774-0.249,2.518-0.239,2.923,1.024c0.304,0.946-0.439,1.786,0.017,3.697l4.189-1.345
			c0.137-2.923,0.509-6.399,4.382-7.643c3.559-1.142,6.448,0.462,8.07,3.644l0.832-0.268c0.402-0.129,0.95,0.297,1.125,0.841
			C326.107,35.767,325.881,36.346,325.479,36.475z"/>
	</g>
</g>
<g>
</g>
<g>
</g>
<g>
</g>
<g>
</g>
<g>
</g>
<g>
</g>
<g>
</g>
<g>
</g>
<g>
</g>
<g>
</g>
<g>
</g>
<g>
</g>
<g>
</g>
<g>
</g>
<g>
</g>
</svg>
